<?xml version="1.0"?>
<svg id="Layer_1" xmlns="http://www.w3.org/2000/svg" viewBox="0 0 792 612">
  <defs>
    
  </defs>
  <rect class="cls-1" x=".79" y=".55" width="395.69" height="612"></rect>
  <rect x="396.99" y="-.3" width="395.69" height="612"></rect>
  <g>
    <g>
      <g>
        <path d="M83.43,288.22l-2.82,11.62h-1.49c-.02-3.92-.89-6.77-2.61-8.54-1.72-1.77-3.9-2.66-6.52-2.66s-4.74.77-6.45,2.32c-1.71,1.55-2.56,3.09-2.56,4.63,0,1.19.53,2.33,1.59,3.41,1.06,1.08,3.55,2.46,7.45,4.13,3.9,1.67,6.7,3.5,8.39,5.48s2.53,4.42,2.53,7.31c0,3.92-1.46,7.23-4.38,9.91-2.92,2.68-6.32,4.02-10.18,4.02-3.54,0-6.95-1.32-10.23-3.98-1.64,1.09-2.97,2.1-4.01,3.03h-1.15l2.91-11.8h1.24c.42,3.68,1.67,6.47,3.73,8.36,2.06,1.89,4.56,2.84,7.5,2.84s5.49-.83,7.42-2.49c1.93-1.66,2.9-3.67,2.9-6.04,0-1.82-.68-3.43-2.03-4.83-1.36-1.4-3.97-2.95-7.84-4.67s-6.36-3.36-7.47-4.93-1.65-3.45-1.65-5.66c0-3.72,1.21-6.72,3.63-9,2.42-2.28,5.39-3.41,8.91-3.41,3.82,0,6.79,1.35,8.89,4.04,1.29-.97,2.25-2,2.85-3.09h1.46Z"></path>
        <path d="M101.09,289.76h-6.22l.3-1.55h17.84c4.27,0,7.28.28,9.04.83,1.76.56,3.26,1.66,4.51,3.31,1.25,1.65,1.87,3.52,1.87,5.6,0,3.3-1.52,6.16-4.55,8.57-3.03,2.42-7.63,3.63-13.78,3.63h-6.1l-3.49,17.21h6.28l-.3,1.55h-19.45l.3-1.55h6.16l7.59-37.6ZM113.44,289.76h-5.28l-3.85,18.82h5.68c2.63,0,4.67-.34,6.13-1.03s2.62-2.32,3.49-4.89c.87-2.57,1.31-5.11,1.31-7.62,0-1.6-.43-2.88-1.29-3.84s-2.92-1.44-6.18-1.44Z"></path>
        <path d="M153.23,289.76l-8.13,37.6h5.61l-.33,1.55h-18.39l.36-1.55h5.61l8.13-37.6h-5.58l.36-1.55h18.33l-.3,1.55h-5.68Z"></path>
        <path d="M282.54,289.76l-3.67,17.08h3.16c2.49,0,4.34-.43,5.57-1.29,1.22-.86,2.31-2.82,3.26-5.87h1.55l-3.64,16.9h-1.58c.22-1.11.33-2.23.33-3.34,0-.99-.27-1.94-.82-2.84-.55-.9-1.15-1.46-1.8-1.68-.66-.22-1.7-.33-3.11-.33h-3.22l-4.04,18.97h10.68c2.51,0,4.37-.17,5.57-.5,1.2-.33,2.56-1.44,4.07-3.32,1.51-1.88,3.02-4.36,4.54-7.44h1.55l-3.79,12.81h-35.6l.3-1.55h5.58l7.95-37.6h-6.28l.33-1.55h34.29l-1.85,10.32h-1.37c.04-2.83-.25-4.87-.88-6.1-.63-1.23-1.51-1.99-2.64-2.26-1.13-.27-2.92-.41-5.37-.41h-9.07Z"></path>
        <path d="M321.2,307.61l-4.1,19.76h5.98l-.33,1.55h-18.63l.36-1.55h5.61l7.89-37.6h-6.28l.3-1.55h18.91c4.25,0,7.54.88,9.86,2.64,2.33,1.76,3.49,3.88,3.49,6.37,0,2.65-1.26,4.89-3.79,6.72-2.53,1.83-6.46,2.94-11.81,3.32v.12c3.6,1.03,6.23,2.42,7.89,4.16s2.49,4.66,2.49,8.77c0,2.87.18,4.8.55,5.77s1.37,1.46,3,1.46c.75,0,1.82-.23,3.22-.7v1.64c-2.08.61-3.78.91-5.1.91-2.99,0-5.35-.8-7.06-2.4-1.71-1.6-2.56-4.44-2.56-8.53s-.5-7.1-1.52-8.6c-1.01-1.51-3.29-2.26-6.83-2.26h-1.55ZM330.46,289.76h-5.4l-3.55,16.27h4.31c3.4,0,5.73-.38,6.99-1.14,1.26-.76,2.3-2.08,3.1-3.97.8-1.89,1.2-3.87,1.2-5.93,0-1.54-.38-2.79-1.14-3.76-.76-.97-2.59-1.46-5.51-1.46Z"></path>
      </g>
      <polygon points="183.27 289.72 181.92 289.72 169.29 326.77 163.31 326.77 163.31 328.26 177.17 328.26 177.17 326.77 170.84 326.77 180.24 299.16 183.27 289.72"></polygon>
      <path class="cls-2" d="M175.77,288.22h18.71v1.49h-6.22l10.16,27.61h.12l9.4-27.61h-6.33v-1.49h13.86v1.49h-5.98l-13.13,38.55h-.79l-14.53-38.55h-5.25v-1.49Z"></path>
      <polygon points="229.06 289.72 227.71 289.72 215.09 326.77 209.11 326.77 209.11 328.26 222.97 328.26 222.97 326.77 216.64 326.77 226.03 299.16 229.06 289.72"></polygon>
      <path d="M221.56,288.22h18.71v1.49h-6.22l10.16,27.61h.12l9.4-27.61h-6.33v-1.49h13.86v1.49h-5.98l-13.13,38.55h-.79l-14.53-38.55h-5.25v-1.49Z"></path>
    </g>
    <g>
      <path d="M207.06,350.72v-13.19h-2.25v-.54h12.05l.18,4.31h-.48c0-.14-.12-.62-.37-1.46-.25-.84-.61-1.44-1.09-1.78-.48-.35-1.29-.52-2.42-.52h-3.1v6.19h.59c.63,0,1.12-.04,1.48-.13.36-.09.68-.32.94-.71.27-.39.43-1,.48-1.84h.54v6.05h-.54c-.06-.91-.2-1.57-.43-1.98-.23-.41-.52-.66-.88-.75-.36-.09-.89-.14-1.6-.14h-.59v6.51h2.51v.54h-7.28v-.54h2.25Z"></path>
      <path d="M225.41,351.6c-1.84,0-3.41-.77-4.7-2.32-1.29-1.55-1.93-3.2-1.93-4.96,0-2.12.68-3.92,2.03-5.41,1.35-1.49,2.92-2.24,4.71-2.24,1.68,0,3.19.76,4.53,2.28,1.34,1.52,2,3.24,2,5.17s-.67,3.73-2.01,5.23c-1.34,1.5-2.88,2.25-4.63,2.25ZM225.46,337.2c-.78,0-1.48.18-2.1.54-.62.36-1.04.98-1.27,1.87s-.34,2.43-.34,4.64c0,1.53.06,2.74.19,3.65.13.91.45,1.66.97,2.26.52.6,1.34.89,2.45.89.68,0,1.37-.18,2.05-.54.69-.36,1.13-1.07,1.34-2.13.21-1.06.31-2.69.31-4.89,0-1.99-.13-3.37-.39-4.13-.26-.76-.67-1.31-1.25-1.64s-1.23-.51-1.99-.51Z"></path>
      <path d="M246.18,337.53h-2.33v-.54h5.1v.54h-2.25v8.64c0,1.25-.09,2.17-.28,2.77-.19.6-.53,1.1-1.03,1.5-.5.41-1.09.7-1.78.88-.69.19-1.41.28-2.15.28-1.56,0-2.7-.25-3.43-.74-.72-.49-1.17-1.09-1.34-1.81-.17-.72-.25-1.68-.25-2.89v-8.64h-2.06v-.54h6.83v.54h-2.25v8.39c0,1.16.05,2.07.16,2.73.11.66.39,1.21.86,1.65.47.44,1.21.66,2.23.66.82,0,1.56-.17,2.21-.51.65-.34,1.11-.79,1.37-1.36.26-.57.39-1.62.39-3.17v-8.39Z"></path>
      <path d="M263.27,337.53v14.07h-.44l-9.4-14.13h-.04v13.26h2.42v.54h-5.08v-.54h2.12v-13.19h-2.27v-.54h5.45l6.66,10.01h.04v-9.47h-2.36v-.54h5.07v.54h-2.16Z"></path>
      <path d="M269.47,350.72v-13.19h-2.22v-.54h6.74c1.49,0,2.77.21,3.83.63,1.06.42,1.95,1.25,2.66,2.48.71,1.23,1.07,2.57,1.07,4.01,0,1.53-.39,2.89-1.17,4.09-.78,1.2-1.68,2.01-2.7,2.43-1.02.42-2.26.63-3.72.63h-6.7v-.54h2.22ZM272.01,337.53v13.19h1.85c.97,0,1.77-.09,2.38-.27.61-.18,1.12-.56,1.52-1.16.4-.6.67-1.35.81-2.27.14-.92.21-2.11.21-3.59,0-1.78-.22-3.1-.68-3.97s-1-1.41-1.66-1.62c-.65-.21-1.5-.31-2.55-.31h-1.9Z"></path>
      <path d="M290.16,346.82h-4.54l-1.46,3.91h2.64v.54h-5.17v-.54h1.97l5.21-14.07h.33l4.99,14.07h1.92v.54h-6.8v-.54h2.31l-1.4-3.91ZM285.83,346.27h4.14l-2.01-5.72h-.04l-2.09,5.72Z"></path>
      <path d="M296.2,336.99h12.17l.37,4.86h-.54c-.33-1.63-.78-2.75-1.33-3.38-.55-.63-1.27-.94-2.17-.94h-1.16v13.19h2.55v.54h-7.63v-.54h2.55v-13.19h-1.16c-.9,0-1.62.31-2.17.94s-.99,1.75-1.33,3.38h-.54l.37-4.86Z"></path>
      <path d="M312.7,350.72v-13.19h-2.33v-.54h7.22v.54h-2.35v13.19h2.35v.54h-7.22v-.54h2.33Z"></path>
      <path d="M326.36,351.6c-1.84,0-3.41-.77-4.7-2.32s-1.93-3.2-1.93-4.96c0-2.12.68-3.92,2.03-5.41,1.35-1.49,2.92-2.24,4.71-2.24,1.68,0,3.19.76,4.52,2.28,1.34,1.52,2,3.24,2,5.17s-.67,3.73-2.01,5.23c-1.34,1.5-2.88,2.25-4.63,2.25ZM326.4,337.2c-.78,0-1.48.18-2.1.54-.62.36-1.04.98-1.27,1.87-.22.89-.33,2.43-.33,4.64,0,1.53.06,2.74.19,3.65.13.91.45,1.66.97,2.26.52.6,1.34.89,2.45.89.68,0,1.37-.18,2.05-.54.69-.36,1.13-1.07,1.34-2.13s.31-2.69.31-4.89c0-1.99-.13-3.37-.39-4.13-.26-.76-.67-1.31-1.24-1.64-.57-.34-1.23-.51-1.99-.51Z"></path>
      <path d="M347.64,337.53v14.07h-.44l-9.4-14.13h-.04v13.26h2.42v.54h-5.08v-.54h2.12v-13.19h-2.27v-.54h5.45l6.66,10.01h.04v-9.47h-2.36v-.54h5.07v.54h-2.16Z"></path>
    </g>
    <g>
      <path d="M54.09,266.11h12.17l.37,4.86h-.54c-.33-1.63-.78-2.75-1.33-3.38s-1.27-.94-2.17-.94h-1.16v13.19h2.55v.54h-7.63v-.54h2.56v-13.19h-1.16c-.9,0-1.62.31-2.17.94-.55.63-.99,1.75-1.33,3.38h-.54l.37-4.86Z"></path>
      <path d="M70.47,279.85v-13.19h-2.25v-.54h7.05v.54h-2.27v6.1h6.17v-6.1h-2.23v-.54h7.01v.54h-2.25v13.19h2.25v.54h-7.01v-.54h2.23v-6.55h-6.17v6.55h2.27v.54h-7.05v-.54h2.25Z"></path>
      <path d="M90.93,266.66v6.12h1.29c.45,0,.84-.04,1.15-.13.32-.09.6-.33.85-.72.25-.39.4-1,.43-1.83h.55v6.05h-.55c-.06-1.15-.28-1.91-.67-2.27-.39-.37-.98-.55-1.77-.55h-1.29v6.53h2.91c1.65,0,2.79-.35,3.42-1.04.63-.69,1.01-1.76,1.13-3.2h.54l-.14,4.78h-12.66v-.54h2.27v-13.19h-2.27v-.54h12.14l.24,3.81h-.54c-.19-1.16-.56-1.99-1.14-2.5-.57-.51-1.53-.77-2.87-.77h-3.03Z"></path>
    </g>
  </g>
  <g>
    <g>
      <g>
        <path class="cls-1" d="M477.87,285.06l-2.82,11.62h-1.49c-.02-3.92-.89-6.77-2.61-8.54-1.72-1.77-3.9-2.66-6.52-2.66s-4.74.77-6.45,2.32c-1.71,1.55-2.56,3.09-2.56,4.63,0,1.19.53,2.33,1.59,3.41,1.06,1.08,3.55,2.46,7.45,4.13,3.9,1.67,6.7,3.5,8.39,5.48s2.53,4.42,2.53,7.31c0,3.92-1.46,7.23-4.38,9.91-2.92,2.68-6.32,4.02-10.18,4.02-3.54,0-6.95-1.32-10.23-3.98-1.64,1.09-2.97,2.1-4.01,3.03h-1.15l2.91-11.8h1.24c.42,3.68,1.67,6.47,3.73,8.36,2.06,1.89,4.56,2.84,7.5,2.84s5.49-.83,7.42-2.49c1.93-1.66,2.9-3.67,2.9-6.04,0-1.82-.68-3.43-2.03-4.83-1.36-1.4-3.97-2.95-7.84-4.67s-6.36-3.36-7.47-4.93-1.65-3.45-1.65-5.66c0-3.72,1.21-6.72,3.63-9,2.42-2.28,5.39-3.41,8.91-3.41,3.82,0,6.79,1.35,8.89,4.04,1.29-.97,2.25-2,2.85-3.09h1.46Z"></path>
        <path class="cls-1" d="M495.53,286.61h-6.22l.3-1.55h17.84c4.27,0,7.28.28,9.04.83,1.76.56,3.26,1.66,4.51,3.31,1.25,1.65,1.87,3.52,1.87,5.6,0,3.3-1.52,6.16-4.55,8.57-3.03,2.42-7.63,3.63-13.78,3.63h-6.1l-3.49,17.21h6.28l-.3,1.55h-19.45l.3-1.55h6.16l7.59-37.6ZM507.88,286.61h-5.28l-3.85,18.82h5.68c2.63,0,4.67-.34,6.13-1.03s2.62-2.32,3.49-4.89c.87-2.57,1.31-5.11,1.31-7.62,0-1.6-.43-2.88-1.29-3.84s-2.92-1.44-6.18-1.44Z"></path>
        <path class="cls-1" d="M547.67,286.61l-8.13,37.6h5.61l-.33,1.55h-18.39l.36-1.55h5.61l8.13-37.6h-5.58l.36-1.55h18.33l-.3,1.55h-5.68Z"></path>
        <path class="cls-1" d="M676.98,286.61l-3.67,17.08h3.16c2.49,0,4.34-.43,5.57-1.29,1.22-.86,2.31-2.82,3.26-5.87h1.55l-3.64,16.9h-1.58c.22-1.11.33-2.23.33-3.34,0-.99-.27-1.94-.82-2.84-.55-.9-1.15-1.46-1.8-1.68-.66-.22-1.7-.33-3.11-.33h-3.22l-4.04,18.97h10.68c2.51,0,4.37-.17,5.57-.5,1.2-.33,2.56-1.44,4.07-3.32,1.51-1.88,3.02-4.36,4.54-7.44h1.55l-3.79,12.81h-35.6l.3-1.55h5.58l7.95-37.6h-6.28l.33-1.55h34.29l-1.85,10.32h-1.37c.04-2.83-.25-4.87-.88-6.1-.63-1.23-1.51-1.99-2.64-2.26-1.13-.27-2.92-.41-5.37-.41h-9.07Z"></path>
        <path class="cls-1" d="M715.64,304.46l-4.1,19.76h5.98l-.33,1.55h-18.63l.36-1.55h5.61l7.89-37.6h-6.28l.3-1.55h18.91c4.25,0,7.54.88,9.86,2.64,2.33,1.76,3.49,3.88,3.49,6.37,0,2.65-1.26,4.89-3.79,6.72-2.53,1.83-6.46,2.94-11.81,3.32v.12c3.6,1.03,6.23,2.42,7.89,4.16s2.49,4.66,2.49,8.77c0,2.87.18,4.8.55,5.77s1.37,1.46,3,1.46c.75,0,1.82-.23,3.22-.7v1.64c-2.08.61-3.78.91-5.1.91-2.99,0-5.35-.8-7.06-2.4-1.71-1.6-2.56-4.44-2.56-8.53s-.5-7.1-1.52-8.6c-1.01-1.51-3.29-2.26-6.83-2.26h-1.55ZM724.9,286.61h-5.4l-3.55,16.27h4.31c3.4,0,5.73-.38,6.99-1.14,1.26-.76,2.3-2.08,3.1-3.97.8-1.89,1.2-3.87,1.2-5.93,0-1.54-.38-2.79-1.14-3.76-.76-.97-2.59-1.46-5.51-1.46Z"></path>
      </g>
      <polygon class="cls-1" points="577.71 286.57 576.36 286.57 563.73 323.62 557.75 323.62 557.75 325.11 571.61 325.11 571.61 323.62 565.28 323.62 574.68 296.01 577.71 286.57"></polygon>
      <path class="cls-2" d="M570.21,285.07h18.71v1.49h-6.22l10.16,27.61h.12l9.4-27.61h-6.33v-1.49h13.86v1.49h-5.98l-13.13,38.55h-.79l-14.53-38.55h-5.25v-1.49Z"></path>
      <polygon class="cls-1" points="623.5 286.57 622.15 286.57 609.53 323.62 603.55 323.62 603.55 325.11 617.41 325.11 617.41 323.62 611.08 323.62 620.47 296.01 623.5 286.57"></polygon>
      <path class="cls-1" d="M616,285.07h18.71v1.49h-6.22l10.16,27.61h.12l9.4-27.61h-6.33v-1.49h13.86v1.49h-5.98l-13.13,38.55h-.79l-14.53-38.55h-5.25v-1.49Z"></path>
    </g>
    <g>
      <path class="cls-1" d="M601.5,347.57v-13.19h-2.25v-.54h12.05l.18,4.31h-.48c0-.14-.12-.62-.37-1.46-.25-.84-.61-1.44-1.09-1.78-.48-.35-1.29-.52-2.42-.52h-3.1v6.19h.59c.63,0,1.12-.04,1.48-.13.36-.09.68-.32.94-.71.27-.39.43-1,.48-1.84h.54v6.05h-.54c-.06-.91-.2-1.57-.43-1.98-.23-.41-.52-.66-.88-.75-.36-.09-.89-.14-1.6-.14h-.59v6.51h2.51v.54h-7.28v-.54h2.25Z"></path>
      <path class="cls-1" d="M619.85,348.45c-1.84,0-3.41-.77-4.7-2.32-1.29-1.55-1.93-3.2-1.93-4.96,0-2.12.68-3.92,2.03-5.41,1.35-1.49,2.92-2.24,4.71-2.24,1.68,0,3.19.76,4.53,2.28,1.34,1.52,2,3.24,2,5.17s-.67,3.73-2.01,5.23c-1.34,1.5-2.88,2.25-4.63,2.25ZM619.9,334.05c-.78,0-1.48.18-2.1.54-.62.36-1.04.98-1.27,1.87s-.34,2.43-.34,4.64c0,1.53.06,2.74.19,3.65.13.91.45,1.66.97,2.26.52.6,1.34.89,2.45.89.68,0,1.37-.18,2.05-.54.69-.36,1.13-1.07,1.34-2.13.21-1.06.31-2.69.31-4.89,0-1.99-.13-3.37-.39-4.13-.26-.76-.67-1.31-1.25-1.64s-1.23-.51-1.99-.51Z"></path>
      <path class="cls-1" d="M640.62,334.38h-2.33v-.54h5.1v.54h-2.25v8.64c0,1.25-.09,2.17-.28,2.77-.19.6-.53,1.1-1.03,1.5-.5.41-1.09.7-1.78.88-.69.19-1.41.28-2.15.28-1.56,0-2.7-.25-3.43-.74-.72-.49-1.17-1.09-1.34-1.81-.17-.72-.25-1.68-.25-2.89v-8.64h-2.06v-.54h6.83v.54h-2.25v8.39c0,1.16.05,2.07.16,2.73.11.66.39,1.21.86,1.65.47.44,1.21.66,2.23.66.82,0,1.56-.17,2.21-.51.65-.34,1.11-.79,1.37-1.36.26-.57.39-1.62.39-3.17v-8.39Z"></path>
      <path class="cls-1" d="M657.71,334.38v14.07h-.44l-9.4-14.13h-.04v13.26h2.42v.54h-5.08v-.54h2.12v-13.19h-2.27v-.54h5.45l6.66,10.01h.04v-9.47h-2.36v-.54h5.07v.54h-2.16Z"></path>
      <path class="cls-1" d="M663.91,347.57v-13.19h-2.22v-.54h6.74c1.49,0,2.77.21,3.83.63,1.06.42,1.95,1.25,2.66,2.48.71,1.23,1.07,2.57,1.07,4.01,0,1.53-.39,2.89-1.17,4.09-.78,1.2-1.68,2.01-2.7,2.43-1.02.42-2.26.63-3.72.63h-6.7v-.54h2.22ZM666.45,334.38v13.19h1.85c.97,0,1.77-.09,2.38-.27.61-.18,1.12-.56,1.52-1.16.4-.6.67-1.35.81-2.27.14-.92.21-2.11.21-3.59,0-1.78-.22-3.1-.68-3.97s-1-1.41-1.66-1.62c-.65-.21-1.5-.31-2.55-.31h-1.9Z"></path>
      <path class="cls-1" d="M684.6,343.66h-4.54l-1.46,3.91h2.64v.54h-5.17v-.54h1.97l5.21-14.07h.33l4.99,14.07h1.92v.54h-6.8v-.54h2.31l-1.4-3.91ZM680.27,343.12h4.14l-2.01-5.72h-.04l-2.09,5.72Z"></path>
      <path class="cls-1" d="M690.64,333.84h12.17l.37,4.86h-.54c-.33-1.63-.78-2.75-1.33-3.38-.55-.63-1.27-.94-2.17-.94h-1.16v13.19h2.55v.54h-7.63v-.54h2.55v-13.19h-1.16c-.9,0-1.62.31-2.17.94s-.99,1.75-1.33,3.38h-.54l.37-4.86Z"></path>
      <path class="cls-1" d="M707.14,347.57v-13.19h-2.33v-.54h7.22v.54h-2.35v13.19h2.35v.54h-7.22v-.54h2.33Z"></path>
      <path class="cls-1" d="M720.79,348.45c-1.84,0-3.41-.77-4.7-2.32s-1.93-3.2-1.93-4.96c0-2.12.68-3.92,2.03-5.41,1.35-1.49,2.92-2.24,4.71-2.24,1.68,0,3.19.76,4.52,2.28,1.34,1.52,2,3.24,2,5.17s-.67,3.73-2.01,5.23c-1.34,1.5-2.88,2.25-4.63,2.25ZM720.84,334.05c-.78,0-1.48.18-2.1.54-.62.36-1.04.98-1.27,1.87-.22.89-.33,2.43-.33,4.64,0,1.53.06,2.74.19,3.65.13.91.45,1.66.97,2.26.52.6,1.34.89,2.45.89.68,0,1.37-.18,2.05-.54.69-.36,1.13-1.07,1.34-2.13s.31-2.69.31-4.89c0-1.99-.13-3.37-.39-4.13-.26-.76-.67-1.31-1.24-1.64-.57-.34-1.23-.51-1.99-.51Z"></path>
      <path class="cls-1" d="M742.08,334.38v14.07h-.44l-9.4-14.13h-.04v13.26h2.42v.54h-5.08v-.54h2.12v-13.19h-2.27v-.54h5.45l6.66,10.01h.04v-9.47h-2.36v-.54h5.07v.54h-2.16Z"></path>
    </g>
    <g>
      <path class="cls-1" d="M448.53,262.96h12.17l.37,4.86h-.54c-.33-1.63-.78-2.75-1.33-3.38s-1.27-.94-2.17-.94h-1.16v13.19h2.55v.54h-7.63v-.54h2.56v-13.19h-1.16c-.9,0-1.62.31-2.17.94-.55.63-.99,1.75-1.33,3.38h-.54l.37-4.86Z"></path>
      <path class="cls-1" d="M464.91,276.7v-13.19h-2.25v-.54h7.05v.54h-2.27v6.1h6.17v-6.1h-2.23v-.54h7.01v.54h-2.25v13.19h2.25v.54h-7.01v-.54h2.23v-6.55h-6.17v6.55h2.27v.54h-7.05v-.54h2.25Z"></path>
      <path class="cls-1" d="M485.37,263.5v6.12h1.29c.45,0,.84-.04,1.15-.13.32-.09.6-.33.85-.72.25-.39.4-1,.43-1.83h.55v6.05h-.55c-.06-1.15-.28-1.91-.67-2.27-.39-.37-.98-.55-1.77-.55h-1.29v6.53h2.91c1.65,0,2.79-.35,3.42-1.04.63-.69,1.01-1.76,1.13-3.2h.54l-.14,4.78h-12.66v-.54h2.27v-13.19h-2.27v-.54h12.14l.24,3.81h-.54c-.19-1.16-.56-1.99-1.14-2.5-.57-.51-1.53-.77-2.87-.77h-3.03Z"></path>
    </g>
  </g>
</svg>